<svg
  style="background-color:#000" xmlns="http://www.w3.org/2000/svg" width="1500" height="400"><rect width="100%" height="100%" fill="#000"/><polygon style="fill:#000;stroke-width:5;stroke:white" points="150.0 50 92.25999999999999 150 207.74 150"/><polyline style="fill:#000;stroke-width:5;stroke:white" points="250.0 200"/><line style="fill:#000;stroke-width:5;stroke:white" x1="150.0" y1="200" x2="150.0" y2="200"/><polygon style="fill:#000;stroke-width:5;stroke:white" points="450.0 50 392.26 150 507.74 150"/><line style="fill:#000;stroke-width:5;stroke:white" x1="450.0" y1="116.66666666666667" x2="421.13" y2="100"/><polyline style="fill:#000;stroke-width:5;stroke:white" points="550.0 200"/><line style="fill:#000;stroke-width:5;stroke:white" x1="450.0" y1="200" x2="450.0" y2="200"/><polygon style="fill:#000;stroke-width:5;stroke:white" points="750.0 50 692.26 150 807.74 150"/><line style="fill:#000;stroke-width:5;stroke:white" x1="750.0" y1="116.66666666666667" x2="778.87" y2="100"/><polyline style="fill:#000;stroke-width:5;stroke:white" points="850.0 200"/><line style="fill:#000;stroke-width:5;stroke:white" x1="750.0" y1="200" x2="750.0" y2="200"/><polygon style="fill:#000;stroke-width:5;stroke:white" points="1050.0 50 992.26 150 1107.74 150"/><line style="fill:#000;stroke-width:5;stroke:white" x1="1050.0" y1="116.66666666666667" x2="1050.0" y2="150"/><polyline style="fill:#000;stroke-width:5;stroke:white" points="1150.0 200"/><line style="fill:#000;stroke-width:5;stroke:white" x1="1050.0" y1="200" x2="1050.0" y2="200"/><polygon style="fill:#000;stroke-width:5;stroke:white" points="1350.0 50 1292.26 150 1407.74 150"/><circle id="dot1" cx="1350.0" cy="116.66666666666667" r="10"/><polyline style="fill:#000;stroke-width:5;stroke:white" points="1450.0 200"/><line style="fill:#000;stroke-width:5;stroke:white" x1="1350.0" y1="200" x2="1350.0" y2="200"/></svg>
